<svg width="140" height="140" viewBox="0 0 140 140" fill="none" xmlns="http://www.w3.org/2000/svg">
<path d="M66.6667 6.66667C71 6.66667 75.4444 7.13889 80 8.08333C84.5556 9.02778 89 10.4444 93.3333 12.3333L75 20.8333C73.6667 20.6111 72.3056 20.4167 70.9167 20.25C69.5278 20.0833 68.1111 20 66.6667 20C65.1111 20 63.6111 20.0556 62.1667 20.1667C60.7222 20.2778 59.2222 20.5 57.6667 20.8333C62.3333 28.6111 68.6667 34.8611 76.6667 39.5833C84.6667 44.3056 93.5556 46.6667 103.333 46.6667C103.778 46.6667 104.167 46.6667 104.5 46.6667C104.833 46.6667 105.222 46.6667 105.667 46.6667L111.5 59.5C101.5 60.7222 91.0556 59.5556 80.1667 56C69.2778 52.4444 59.7778 45.5556 51.6667 35.3333C47.7778 44.7778 42.4722 52.5556 35.75 58.6667C29.0278 64.7778 21.5556 69.3333 13.3333 72.3333C13.3333 87.7778 18.5278 100.694 28.9167 111.083C39.3056 121.472 51.8889 126.667 66.6667 126.667C81.7778 126.667 94.5 121.333 104.833 110.667C115.167 100 120.222 87.5556 120 73.3333C120 71.7778 119.944 70.4167 119.833 69.25C119.722 68.0833 119.556 66.6667 119.333 65L127.667 46.5C129.667 51.1667 131.111 55.6667 132 60C132.889 64.3333 133.333 68.7778 133.333 73.3333C133.333 82.2222 131.639 90.6944 128.25 98.75C124.861 106.806 120.194 113.889 114.25 120C108.306 126.111 101.278 130.972 93.1667 134.583C85.0556 138.194 76.2222 140 66.6667 140C57.5556 140 48.9444 138.25 40.8333 134.75C32.7222 131.25 25.6389 126.472 19.5833 120.417C13.5278 114.361 8.75 107.278 5.25 99.1667C1.75 91.0556 0 82.4444 0 73.3333C0 63.7778 1.83333 54.9167 5.5 46.75C9.16667 38.5833 14.0833 31.5278 20.25 25.5833C26.4167 19.6389 33.5 15 41.5 11.6667C49.5 8.33333 57.8889 6.66667 66.6667 6.66667V6.66667M46.6667 71.6667C49 71.6667 50.9722 72.4722 52.5833 74.0833C54.1944 75.6944 55 77.6667 55 80C55 82.3333 54.1944 84.3056 52.5833 85.9167C50.9722 87.5278 49 88.3333 46.6667 88.3333C44.3333 88.3333 42.3611 87.5278 40.75 85.9167C39.1389 84.3056 38.3333 82.3333 38.3333 80C38.3333 77.6667 39.1389 75.6944 40.75 74.0833C42.3611 72.4722 44.3333 71.6667 46.6667 71.6667V71.6667M82.1667 33.3333V33.3333V33.3333V33.3333V33.3333V33.3333V33.3333V33.3333V33.3333V33.3333V33.3333V33.3333V33.3333M86.6667 71.6667C89 71.6667 90.9722 72.4722 92.5833 74.0833C94.1944 75.6944 95 77.6667 95 80C95 82.3333 94.1944 84.3056 92.5833 85.9167C90.9722 87.5278 89 88.3333 86.6667 88.3333C84.3333 88.3333 82.3611 87.5278 80.75 85.9167C79.1389 84.3056 78.3333 82.3333 78.3333 80C78.3333 77.6667 79.1389 75.6944 80.75 74.0833C82.3611 72.4722 84.3333 71.6667 86.6667 71.6667V71.6667M116.667 0L124 16L140 23.3333L124 30.6667L116.667 46.6667L109.333 30.6667L93.3333 23.3333L109.333 16L116.667 0V0M16.1667 56.5C21.8333 53.2778 26.7778 49.1111 31 44C35.2222 38.8889 38.3889 33.1667 40.5 26.8333C34.8333 30.0556 29.8889 34.2222 25.6667 39.3333C21.4444 44.4444 18.2778 50.1667 16.1667 56.5V56.5M40.5 26.8333V26.8333V26.8333V26.8333V26.8333V26.8333" fill="#4456BA"/>
</svg>
